<?xml version="1.0" encoding="UTF-8"?>
<svg id="Layer_1" data-name="Layer 1" xmlns="http://www.w3.org/2000/svg" viewBox="0 0 240 457.19">
  <defs>
    <style>
      .cls-1 {
        fill: #fff;
      }
    </style>
  </defs>
  <polygon class="cls-1" points="24.36 24.6 120.77 24.6 216.18 24.6 216.18 433.19 120.77 433.19 24.36 433.19 24.36 24.6"/>
  <polygon points="24 24 12 12 24 0 216 0 228 12 216 24 24 24"/>
  <polygon points="24 240.6 12 228.6 24 216.6 216 216.6 228 228.6 216 240.6 24 240.6"/>
  <polygon points="24 457.19 12 445.19 24 433.19 216 433.19 228 445.19 216 457.19 24 457.19"/>
  <polygon points="216 24 228 12 240 24 240 216 228 228 216 216 216 24"/>
  <polygon points="0 24 12 12 24 24 24 216 12 228 0 216 0 24"/>
  <polygon points="0 241.19 12 229.19 24 241.19 24 433.19 12 445.19 0 433.19 0 241.19"/>
  <polygon points="216 241.19 228 229.19 240 241.19 240 433.19 228 445.19 216 433.19 216 241.19"/>
</svg>